<?xml version="1.0" encoding="utf-8"?>
<!-- Generator: Adobe Illustrator 19.1.0, SVG Export Plug-In . SVG Version: 6.00 Build 0)  -->
<!DOCTYPE svg PUBLIC "-//W3C//DTD SVG 1.1//EN" "http://www.w3.org/Graphics/SVG/1.1/DTD/svg11.dtd">
<svg version="1.1" id="Layer_1" xmlns="http://www.w3.org/2000/svg" xmlns:xlink="http://www.w3.org/1999/xlink" x="0px" y="0px"
	 width="80px" height="16px" viewBox="0 0 80 16" enable-background="new 0 0 80 16" xml:space="preserve">
<path fill="#FFFFFF" d="M19,14v-2h10v2H19z M20,7h3V2h2v5h3l-4,4L20,7z"/>
<path fill="#FFFFFF" d="M40,6c-3.2,0-6,2.5-6,7c1.1-1.7,2.4-3,6-3v3l6-5l-6-5V6z"/>
<path fill="#FFFFFF" d="M74,2h-4v2h-4v2h2v7c0,0.5525,0.44749,1,1,1h6c0.55251,0,1-0.4475,1-1V6h2V4h-4V2z M74,6v6h-4V6H74z"/>
<path fill="#FFFFFF" d="M58.7,2.508c-1.125,0-2.1,0.575-2.7,1.438c-0.6-0.863-1.575-1.438-2.7-1.438c-1.8,0-3.3,1.438-3.3,3.164
	c0,3.164,6,7.8385,6,7.8385s6-4.6745,6-7.8385C62,3.946,60.5,2.508,58.7,2.508z"/>
<path fill="#FFFFFF" d="M10.6515,2.3645c-0.3975-0.3975-0.994-0.3975-1.392,0L2.298,9.326C2.0995,9.525,2,9.7235,2,10.022v2.9835
	C2,13.602,2.3975,14,2.9945,14h2.983c0.2985,0,0.4975-0.0995,0.6965-0.2985L13.635,6.74c0.398-0.3975,0.398-0.994,0-1.392
	L10.6515,2.3645z M5.58,12.011H3.9885V10.42l5.967-5.967l1.591,1.591L5.58,12.011z"/>
</svg>
