<svg xmlns="http://www.w3.org/2000/svg" xmlns:xlink="http://www.w3.org/1999/xlink" x="0px" y="0px" width="64px" height="16px" viewBox="0 0 64 16"><g  transform="translate(0, 0)"><path fill="#ffffff" d="M8,10c2.2,0,4-1.8,4-4V4c0-2.2-1.8-4-4-4S4,1.8,4,4v2C4,8.2,5.8,10,8,10z M6,4c0-1.1,0.9-2,2-2s2,0.9,2,2v2
	c0,1.1-0.9,2-2,2S6,7.1,6,6V4z"/>
<path data-color="color-2" fill="#ffffff" d="M15.9,7.1C16,6.6,15.6,6.1,15.1,6c-0.5-0.1-1.1,0.3-1.1,0.8C13.5,9.8,11,12,8,12
	S2.5,9.8,2.1,6.9C2,6.3,1.5,5.9,0.9,6C0.4,6.1,0,6.6,0.1,7.1c0.5,3.6,3.4,6.3,6.9,6.8V16h2v-2.1C12.5,13.5,15.4,10.7,15.9,7.1z"/></g><g  transform="translate(16, 0)"><path fill="#ffffff" d="M15,16H1c-0.6,0-1-0.4-1-1V1c0-0.6,0.4-1,1-1h14c0.6,0,1,0.4,1,1v14C16,15.6,15.6,16,15,16z M2,14h12V2H2V14
	z"/>
<path data-color="color-2" fill="#ffffff" d="M6,4c0.6,0,1,0.4,1,1S6.6,6,6,6S5,5.6,5,5S5.4,4,6,4z"/>
<polygon data-color="color-2" fill="#ffffff" points="3,12 5,8 7,10 10,6 13,12 "/></g><g  transform="translate(32, 0)"><path fill="#ffffff" d="M10,14H1c-0.6,0-1-0.4-1-1V3c0-0.6,0.4-1,1-1h9c0.6,0,1,0.4,1,1v1.5l3.6-1.5C15.3,2.8,16,3.3,16,4v8
	c0,0.7-0.7,1.2-1.4,0.9L11,11.5V13C11,13.6,10.6,14,10,14z M2,12h7v-2c0-0.7,0.7-1.2,1.4-0.9l3.6,1.5v-5l-3.6,1.5C9.7,7.2,9,6.7,9,6
	V4H2V12z"/></g><g  transform="translate(48, 0)">
<path fill="#ffffff" d="M11,3h-1C9.4,3,9,3.4,9,4s0.4,1,1,1h1c1.7,0,3,1.3,3,3s-1.3,3-3,3h-1c-0.6,0-1,0.4-1,1s0.4,1,1,1h1
	c2.8,0,5-2.2,5-5S13.8,3,11,3z"/>
<path fill="#ffffff" d="M6,11H5c-1.7,0-3-1.3-3-3s1.3-3,3-3h1c0.6,0,1-0.4,1-1S6.6,3,6,3H5C2.2,3,0,5.2,0,8s2.2,5,5,5h1
	c0.6,0,1-0.4,1-1S6.6,11,6,11z"/>
<path data-color="color-2" fill="#ffffff" d="M4,8c0,0.6,0.4,1,1,1h6c0.6,0,1-0.4,1-1s-0.4-1-1-1H5C4.4,7,4,7.4,4,8z"/>
</g></svg>