<?xml version="1.0" encoding="utf-8"?>
<!-- Generator: Adobe Illustrator 16.0.0, SVG Export Plug-In . SVG Version: 6.00 Build 0)  -->
<!DOCTYPE svg PUBLIC "-//W3C//DTD SVG 1.1//EN" "http://www.w3.org/Graphics/SVG/1.1/DTD/svg11.dtd">
<svg version="1.1" id="图层_1" xmlns="http://www.w3.org/2000/svg" xmlns:xlink="http://www.w3.org/1999/xlink" x="0px" y="0px"
	 width="128px" height="16px" viewBox="0 0 128 16" enable-background="new 0 0 128 16" xml:space="preserve">
<g transform="translate(32, 0)">
	<rect x="6" y="10" fill="#FFFFFF" width="4" height="2"/>
</g>
<path fill="#FFFFFF" d="M71.548,4.435h0.915v7.167h-0.915V4.435z M69.718,5.331h0.915v5.375h-0.915V5.331z M73.378,5.331h0.915
	v5.375h-0.915V5.331z M67.889,6.228h0.915v3.584h-0.915V6.228z M75.207,6.228h0.915v3.584h-0.915V6.228z"/>
<path fill="#FFFFFF" d="M80.011,8.019c0-4.212-3.477-7.616-7.776-7.616v0.896c3.796,0,6.861,3.001,6.861,6.72
	c0,3.047-2.013,5.645-4.986,6.452l-0.09-0.628l-1.785,1.345l2.104,0.853l-0.093-0.673C77.632,14.471,80.011,11.513,80.011,8.019
	L80.011,8.019z M64.915,8.019c0-3.046,2.014-5.645,4.986-6.452l0.047,0.627l1.783-1.344L69.627,0l0.138,0.672
	C66.334,1.567,64,4.524,64,8.019c0,4.212,3.477,7.617,7.776,7.617v-0.896C67.98,14.739,64.915,11.736,64.915,8.019z"/>
<path fill="#FFFFFF" d="M59.82,15.275h-7.579c-0.143,0-0.271-0.084-0.343-0.209l-3.79-6.858c-0.072-0.125-0.072-0.292,0-0.418
	l3.79-6.856c0.071-0.125,0.2-0.209,0.343-0.209h7.579c0.144,0,0.272,0.083,0.343,0.209l3.79,6.856c0.073,0.126,0.073,0.293,0,0.418
	l-3.79,6.858C60.092,15.191,59.964,15.275,59.82,15.275L59.82,15.275z M52.473,14.441h7.116l3.559-6.442l-3.559-6.441h-7.116
	l-3.558,6.441L52.473,14.441z"/>
<path fill="#FFFFFF" d="M54.594,5.33c-0.55,0-0.997-0.467-0.997-1.043c0-0.574,0.447-1.041,0.997-1.041
	c0.551,0,0.998,0.467,0.998,1.041C55.592,4.863,55.145,5.33,54.594,5.33z M54.594,3.662c-0.327,0-0.598,0.284-0.598,0.625
	c0,0.342,0.271,0.625,0.598,0.625c0.327,0,0.599-0.283,0.599-0.625C55.193,3.945,54.921,3.662,54.594,3.662z M60.817,8.662
	c-0.55,0-0.998-0.467-0.998-1.042c0-0.574,0.447-1.041,0.998-1.041s0.998,0.467,0.998,1.041C61.815,8.195,61.368,8.662,60.817,8.662
	z M60.817,6.995c-0.327,0-0.599,0.284-0.599,0.625c0,0.342,0.272,0.625,0.599,0.625c0.327,0,0.599-0.283,0.599-0.625
	C61.416,7.279,61.145,6.995,60.817,6.995z M51.244,8.662c-0.551,0-0.997-0.467-0.997-1.042c0-0.574,0.446-1.041,0.997-1.041
	c0.55,0,0.997,0.467,0.997,1.041C52.241,8.195,51.794,8.662,51.244,8.662z M51.244,6.995c-0.328,0-0.598,0.284-0.598,0.625
	c0,0.342,0.27,0.625,0.598,0.625c0.327,0,0.598-0.283,0.598-0.625C51.842,7.279,51.57,6.995,51.244,6.995z M56.03,8.662
	c-0.55,0-0.997-0.467-0.997-1.042c0-0.574,0.447-1.041,0.997-1.041c0.551,0,0.998,0.467,0.998,1.041
	C57.028,8.195,56.581,8.662,56.03,8.662z M56.03,6.995c-0.326,0-0.598,0.284-0.598,0.625c0,0.342,0.272,0.625,0.598,0.625
	c0.327,0,0.598-0.283,0.598-0.625C56.628,7.279,56.357,6.995,56.03,6.995z M60.02,11.164c-0.551,0-0.997-0.467-0.997-1.043
	S59.469,9.08,60.02,9.08c0.55,0,0.998,0.465,0.998,1.041S60.57,11.164,60.02,11.164z M60.02,9.496c-0.327,0-0.599,0.283-0.599,0.625
	s0.271,0.625,0.599,0.625s0.599-0.283,0.599-0.625S60.347,9.496,60.02,9.496z M53.797,12.83c-0.551,0-0.998-0.467-0.998-1.043
	c0-0.574,0.447-1.041,0.998-1.041c0.55,0,0.997,0.467,0.997,1.041C54.794,12.363,54.348,12.83,53.797,12.83z M53.797,11.164
	c-0.328,0-0.6,0.283-0.6,0.623c0,0.342,0.272,0.627,0.6,0.627c0.327,0,0.598-0.285,0.598-0.627
	C54.396,11.447,54.124,11.164,53.797,11.164z"/>
<path fill="#FFFFFF" d="M60.02,7.829h-1.245c-0.071,0-0.143-0.042-0.175-0.108l-1.691-3.225h-1.516V4.08h1.635
	c0.072,0,0.144,0.042,0.175,0.107l1.691,3.225h1.125V7.829z M56.668,11.996h-2.074v-0.418h1.987l1.364-1.6
	c0.04-0.039,0.096-0.066,0.152-0.066h1.125v0.416h-1.045l-1.364,1.602C56.78,11.971,56.724,11.996,56.668,11.996z M52.042,7.411
	h3.191v0.418h-3.191V7.411z"/>
<path fill="#FFFFFF" d="M7.114,14.082c0.131-0.625,0.688-1.098,1.354-1.098c0.667,0,1.223,0.473,1.354,1.098h4.765v0.693H9.791
	c-0.173,0.566-0.7,0.977-1.323,0.977c-0.623,0-1.149-0.41-1.323-0.977H5.513v-0.693H7.114z M3.919,12.004h2.798v0.691H3.892
	c-0.172,0.568-0.7,0.982-1.325,0.982c-0.764,0-1.383-0.619-1.383-1.383s0.619-1.383,1.383-1.383
	C3.23,10.91,3.786,11.379,3.919,12.004z M9.971,7.545C9.672,7.291,9.484,6.915,9.484,6.491c0-0.763,0.619-1.383,1.383-1.383
	c0.173,0,0.339,0.033,0.491,0.09c0.401-0.81,0.336-1.753-0.175-2.565C10.59,1.687,9.488,1.051,8.103,0.951
	C6.736,0.85,5.468,1.335,4.495,2.236C3.639,3.03,3.113,4.071,3.1,4.931c0.493,0.086,0.967,0.265,1.341,0.511
	C4.685,5.233,5,5.107,5.345,5.107c0.763,0,1.383,0.619,1.383,1.383s-0.62,1.384-1.383,1.384c-0.764,0-1.383-0.62-1.383-1.384
	c0-0.169,0.031-0.331,0.086-0.479C3.535,5.677,2.744,5.493,2.081,5.594c-0.409,0.063-0.743,0.229-0.978,0.49
	C0.837,6.381,0.691,6.811,0.691,7.386c0,1.024,0.477,1.576,1.52,1.868c0.483,0.137,1.084,0.215,1.856,0.25
	c0.602,0.027,1.109,0.031,2.364,0.023c0.462-0.004,0.689-0.006,0.96-0.006h0.012C8.362,9.527,9.215,8.883,9.971,7.545L9.971,7.545z
	 M10.595,7.848c-0.403,0.724-0.848,1.285-1.333,1.679h3.439c1.013,0,1.698-0.359,2.125-0.992c0.329-0.486,0.488-1.121,0.488-1.707
	c0-0.854-0.254-1.564-0.743-2.063c-0.507-0.518-1.267-0.808-2.266-0.825c0.026,0.571-0.097,1.14-0.379,1.661
	c0.201,0.24,0.323,0.551,0.323,0.889c0,0.765-0.62,1.384-1.383,1.384C10.775,7.875,10.683,7.866,10.595,7.848L10.595,7.848z
	 M7.405,10.217c-0.273,0-0.499,0.002-0.966,0.006c-1.269,0.008-1.784,0.004-2.401-0.023c-0.82-0.039-1.469-0.123-2.012-0.275
	C0.699,9.551,0,8.744,0,7.389c0-0.738,0.203-1.332,0.588-1.764C0.937,5.237,1.417,5,1.975,4.914C2.116,4.891,2.262,4.879,2.41,4.877
	C2.442,3.824,3.052,2.632,4.025,1.73c1.109-1.028,2.563-1.583,4.128-1.469c1.599,0.117,2.902,0.868,3.616,2.005
	c0.197,0.313,0.341,0.643,0.43,0.982h0.006c1.226,0,2.198,0.357,2.861,1.034c0.623,0.636,0.94,1.522,0.94,2.546
	c0,0.712-0.193,1.48-0.608,2.095c-0.558,0.825-1.458,1.295-2.7,1.295H7.405V10.217z M10.076,12.695v-0.691h1.743v0.691H10.076z
	 M5.346,7.184c0.383,0,0.692-0.311,0.692-0.693c0-0.382-0.31-0.691-0.692-0.691c-0.382,0-0.692,0.31-0.692,0.691
	C4.655,6.874,4.965,7.184,5.346,7.184z M10.869,7.184c0.383,0,0.692-0.311,0.692-0.693c0-0.382-0.31-0.691-0.692-0.691
	c-0.382,0-0.692,0.31-0.692,0.691C10.177,6.874,10.487,7.184,10.869,7.184z M8.467,15.061c0.383,0,0.693-0.309,0.693-0.691
	s-0.31-0.693-0.693-0.693c-0.382,0-0.692,0.311-0.692,0.693S8.085,15.061,8.467,15.061z M2.567,12.984
	c0.382,0,0.692-0.309,0.692-0.691s-0.31-0.691-0.692-0.691s-0.692,0.311-0.692,0.691S2.185,12.984,2.567,12.984z"/>
<path fill="#FFFFFF" stroke="#FFFFFF" stroke-width="0.25" stroke-miterlimit="10" d="M31.666,15.978H16.257
	c-0.138,0-0.25-0.113-0.25-0.25V0.318c0-0.1,0.063-0.188,0.15-0.226c0.088-0.038,0.201-0.013,0.276,0.05l15.409,15.409
	c0.075,0.075,0.088,0.176,0.05,0.275C31.854,15.915,31.767,15.978,31.666,15.978L31.666,15.978z M16.507,15.477h14.558L16.507,0.919
	V15.477z"/>
<path fill="#FFFFFF" d="M17.372,3.776h-1.115c-0.075,0-0.125-0.051-0.125-0.125c0-0.075,0.05-0.125,0.125-0.125h1.115
	c0.075,0,0.125,0.05,0.125,0.125C17.497,3.725,17.435,3.776,17.372,3.776z M17.372,6.243h-1.115c-0.075,0-0.125-0.05-0.125-0.125
	c0-0.076,0.05-0.125,0.125-0.125h1.115c0.075,0,0.125,0.049,0.125,0.125C17.497,6.181,17.435,6.243,17.372,6.243z M17.372,8.699
	h-1.115c-0.075,0-0.125-0.05-0.125-0.125s0.05-0.125,0.125-0.125h1.115c0.075,0,0.125,0.05,0.125,0.125S17.435,8.699,17.372,8.699z
	 M17.372,11.166h-1.115c-0.075,0-0.125-0.05-0.125-0.125s0.05-0.125,0.125-0.125h1.115c0.075,0,0.125,0.05,0.125,0.125
	C17.497,11.104,17.435,11.166,17.372,11.166z M17.372,13.622h-1.115c-0.075,0-0.125-0.051-0.125-0.126s0.05-0.124,0.125-0.124h1.115
	c0.075,0,0.125,0.049,0.125,0.124S17.435,13.622,17.372,13.622z M28.885,15.853c-0.075,0-0.125-0.051-0.125-0.125v-1.115
	c0-0.075,0.05-0.125,0.125-0.125c0.075,0,0.125,0.05,0.125,0.125v1.115C29.01,15.802,28.96,15.853,28.885,15.853z M26.43,15.853
	c-0.075,0-0.125-0.051-0.125-0.125v-1.115c0-0.075,0.05-0.125,0.125-0.125s0.125,0.05,0.125,0.125v1.115
	C26.555,15.802,26.492,15.853,26.43,15.853z M23.961,15.853c-0.075,0-0.125-0.051-0.125-0.125v-1.115
	c0-0.075,0.05-0.125,0.125-0.125c0.076,0,0.125,0.05,0.125,0.125v1.115C24.087,15.802,24.037,15.853,23.961,15.853z M21.494,15.853
	c-0.075,0-0.125-0.051-0.125-0.125v-1.115c0-0.075,0.05-0.125,0.125-0.125s0.125,0.05,0.125,0.125v1.115
	C21.619,15.802,21.569,15.853,21.494,15.853z M19.038,15.853c-0.075,0-0.125-0.051-0.125-0.125v-1.115
	c0-0.075,0.05-0.125,0.125-0.125c0.076,0,0.125,0.05,0.125,0.125v1.115C19.164,15.802,19.101,15.853,19.038,15.853z M25.365,13.247
	h-6.502c-0.075,0-0.125-0.051-0.125-0.125V6.619c0-0.05,0.025-0.101,0.076-0.113c0.05-0.025,0.1-0.012,0.138,0.025l6.501,6.5
	c0.038,0.039,0.051,0.09,0.025,0.14C25.452,13.221,25.415,13.247,25.365,13.247z M18.988,12.996h6.076L18.988,6.92V12.996z"/>
<path fill="#FFFFFF" d="M45.143,8.119L45.143,8.119c-0.349,0-0.626,0.299-0.626,0.648v5.686h-8.995V8.768
	c0-0.35-0.278-0.648-0.617-0.648c-0.344,0-0.63,0.299-0.63,0.648v6.333c0,0.363,0.286,0.648,0.63,0.648h10.238
	c0.344,0,0.617-0.285,0.617-0.648V8.768C45.76,8.418,45.486,8.119,45.143,8.119L45.143,8.119z M47.912,8.027L47.912,8.027
	l-7.443-7.749l-0.012-0.01c-0.238-0.257-0.635-0.257-0.874,0l-7.456,7.759c-0.242,0.252-0.242,0.662,0,0.915
	c0.242,0.257,0.635,0.257,0.877,0l7.015-7.309l7.02,7.309c0.238,0.257,0.635,0.257,0.873,0C48.154,8.688,48.154,8.279,47.912,8.027
	L47.912,8.027z"/>
<path fill="#FFFFFF" d="M92.003,0.9h-7.995l-3.997,7.138l3.997,7.138h7.995L96,8.038L92.003,0.9z M91.618,14.488h-7.226l-3.613-6.45
	l3.614-6.451h7.225l3.613,6.451L91.618,14.488z"/>
<path fill="#FFFFFF" d="M90.784,7.22l1.752-0.875l-4.531-2.265l-4.529,2.265l1.751,0.875l-1.751,0.875l1.561,0.779l-1.561,0.782
	l4.529,2.264l4.531-2.264l-1.562-0.782l1.562-0.779L90.784,7.22z M88.005,8.609l0.499-0.249l1.031,0.515l-1.53,0.766l-1.529-0.766
	l1.032-0.515L88.005,8.609z M84.915,8.095l1.031-0.516L86.787,8l-1.03,0.516L84.915,8.095z M91.096,9.656l-3.091,1.545l-3.09-1.545
	l0.842-0.42l2.248,1.123l2.25-1.123L91.096,9.656L91.096,9.656z M89.224,8l0.841-0.42l1.031,0.516l-0.841,0.421L89.224,8z"/>
<path fill="#FFFFFF" d="M103.963,15.95c-0.255,0-0.508-0.068-0.73-0.198l-5.518-3.243c-0.448-0.266-0.73-0.761-0.73-1.294V4.73
	c0-0.53,0.282-1.027,0.73-1.292l5.518-3.242c0.443-0.263,1.017-0.261,1.463,0l5.517,3.242c0.449,0.266,0.731,0.76,0.731,1.292v6.484
	c0,0.533-0.282,1.028-0.731,1.294l-5.517,3.243C104.473,15.879,104.222,15.95,103.963,15.95z M103.963,0.934
	c-0.095,0-0.187,0.026-0.271,0.074L98.177,4.25c-0.169,0.1-0.272,0.282-0.272,0.479v6.485c0,0.196,0.104,0.383,0.272,0.479
	l5.516,3.242c0.166,0.099,0.377,0.099,0.542,0l5.516-3.242c0.167-0.1,0.271-0.282,0.271-0.479V4.729
	c0-0.197-0.104-0.382-0.271-0.479l-5.516-3.243C104.151,0.96,104.06,0.934,103.963,0.934z"/>
<g>
	<path fill="#FFFFFF" d="M103.933,8.375c-0.253,0-0.506-0.064-0.734-0.194l-4.436-2.507c-0.226-0.127-0.306-0.414-0.179-0.639
		c0.128-0.225,0.415-0.305,0.64-0.177l4.437,2.504c0.167,0.094,0.368,0.094,0.536,0.002l4.585-2.509
		c0.228-0.125,0.514-0.04,0.638,0.187c0.126,0.227,0.039,0.512-0.188,0.637l-4.582,2.512C104.425,8.312,104.179,8.375,103.933,8.375
		z"/>
	<path fill="#FFFFFF" d="M103.924,14.143c-0.26,0-0.471-0.209-0.468-0.471l0.019-5.05c0.002-0.543,0.301-1.043,0.778-1.303
		l4.528-2.464c0.228-0.123,0.514-0.04,0.638,0.187c0.123,0.227,0.039,0.514-0.19,0.637l-4.527,2.464
		c-0.178,0.097-0.287,0.281-0.288,0.483l-0.021,5.048C104.393,13.934,104.183,14.143,103.924,14.143z"/>
	<path fill="#FFFFFF" d="M103.924,14.143c-0.258,0-0.468-0.209-0.468-0.467l-0.019-5.049c0-0.203-0.111-0.387-0.29-0.484
		l-4.384-2.466c-0.225-0.128-0.305-0.415-0.18-0.64c0.128-0.225,0.415-0.308,0.64-0.18l4.381,2.464
		c0.474,0.258,0.771,0.758,0.771,1.301l0.02,5.048C104.396,13.93,104.186,14.141,103.924,14.143
		C103.927,14.143,103.924,14.143,103.924,14.143z"/>
</g>
<path fill="#FFFFFF" d="M122.752,3.121c2.119,1.022,3.581,3.186,3.581,5.69c0,0.12-0.005,0.241-0.011,0.361
	c0.282,0.039,0.558,0.119,0.816,0.239c0.017-0.198,0.028-0.398,0.028-0.6c0-2.913-1.749-5.417-4.256-6.531
	C122.899,2.567,122.846,2.85,122.752,3.121L122.752,3.121z M123.694,13.938c-1.04,0.747-2.317,1.188-3.697,1.188
	c-1.382,0-2.658-0.441-3.7-1.188c-0.184,0.217-0.4,0.405-0.641,0.56c1.204,0.915,2.708,1.461,4.341,1.461
	c1.632,0,3.136-0.546,4.341-1.461C124.098,14.343,123.88,14.154,123.694,13.938z M113.671,9.172c-0.007-0.12-0.01-0.241-0.01-0.361
	c0-2.505,1.461-4.668,3.58-5.69c-0.095-0.271-0.147-0.554-0.159-0.84c-2.507,1.114-4.255,3.618-4.255,6.531
	c0,0.202,0.01,0.402,0.026,0.6C113.113,9.291,113.389,9.211,113.671,9.172z"/>
<path fill="#FFFFFF" d="M111.993,12.051c0,1.148,0.933,2.078,2.084,2.078c1.152,0,2.084-0.93,2.084-2.078
	c0-1.147-0.932-2.077-2.084-2.077C112.926,9.974,111.993,10.903,111.993,12.051z"/>
<path fill="#FFFFFF" d="M112.827,12.051c0,0.689,0.56,1.248,1.25,1.248c0.691,0,1.25-0.558,1.251-1.246c0,0,0,0,0-0.002
	c0-0.688-0.56-1.246-1.251-1.246C113.387,10.805,112.827,11.363,112.827,12.051z"/>
<path fill="#FFFFFF" d="M117.912,2.079c0,1.148,0.934,2.078,2.085,2.078c1.15,0,2.084-0.93,2.084-2.078
	c0-1.147-0.933-2.078-2.084-2.079c-1.15,0-2.084,0.929-2.085,2.077C117.912,2.077,117.912,2.078,117.912,2.079L117.912,2.079z"/>
<path fill="#FFFFFF" d="M118.746,2.079c0,0.688,0.561,1.247,1.251,1.247c0.691,0,1.25-0.559,1.25-1.247s-0.559-1.247-1.25-1.247
	C119.307,0.832,118.746,1.39,118.746,2.079z"/>
<path fill="#FFFFFF" d="M123.831,12.051c0,1.148,0.933,2.08,2.085,2.08c1.15,0,2.083-0.931,2.084-2.078c0,0,0,0,0-0.002
	c0.001-1.147-0.932-2.077-2.083-2.077c-1.151-0.001-2.085,0.929-2.086,2.075C123.831,12.051,123.831,12.051,123.831,12.051z"/>
<path fill="#FFFFFF" d="M124.665,12.051c0,0.689,0.56,1.248,1.251,1.248c0.689,0,1.251-0.559,1.251-1.248
	c0-0.688-0.562-1.246-1.251-1.246C125.225,10.805,124.665,11.363,124.665,12.051z"/>
</svg>
